<?xml version="1.0" encoding="UTF-8"?>
<!DOCTYPE svg PUBLIC "-//W3C//DTD SVG 1.0//EN"
	"http://www.w3.org/TR/2001/REC-SVG-20010904/DTD/svg10.dtd">
<svg xmlns="http://www.w3.org/2000/svg" version="1.0" width="300" height="300" id="s1">
<g transform="translate(-301.42857,-485.21933)" id="l1">
<path d="M301.42857,485.21933L301.42857,635.21933C301.42857,552.41926 368.62861,485.21934 451.42857,485.21933L301.42857,485.21933zM451.42857,485.21933C534.22859,485.21933 601.42857,552.41926 601.42857,635.21933L601.42857,485.21933L451.42857,485.21933zM601.42857,635.21933C601.42857,718.01933 534.22859,785.2193 451.42857,785.21933L601.42857,785.21933L601.42857,635.21933zM451.42857,785.21933C368.62861,785.21937 301.42856,718.01933 301.42857,635.21933L301.42857,785.21933L451.42857,785.21933zM444.33482,497.65683C398.75911,499.96952 358.98764,524.44313 335.64732,560.53183L344.20982,566.18808C348.84091,559.0123 354.14561,552.31225 360.08482,546.21933L367.39732,553.34433C382.27035,538.07728 401.24255,526.86734 422.55357,521.46933L420.02232,511.56308C428.14134,509.50638 436.58944,508.22565 445.24107,507.81308L444.58482,497.65683C444.50049,497.66099 444.41941,497.65259 444.33482,497.65683zM458.24107,497.65683L457.61607,507.81308C466.2679,508.22565 474.68461,509.50638 482.80357,511.56308L480.27232,521.46933C501.59056,526.86923 520.58439,538.06912 535.45982,553.34433L542.77232,546.25058C548.69482,552.33088 553.99526,559.03042 558.61607,566.18808L567.17857,560.53183C543.79478,524.37622 503.92281,499.89148 458.24107,497.65683zM451.42857,542.62558C447.09194,542.63557 442.75005,542.88816 439.17857,543.43808L444.74107,589.81308C433.01128,591.52357 422.74713,597.6414 415.64732,606.46933L378.30357,578.53183C373.84838,584.20754 368.76599,593.01461 366.14732,599.75058L408.83482,618.00058C406.67674,623.32227 405.49108,629.12618 405.49107,635.21933C405.49107,641.0686 406.58771,646.63528 408.58482,651.78183L366.05357,670.00058C368.74144,676.69664 373.87325,685.55224 378.39732,691.18808L415.27232,663.50058C422.36292,672.54066 432.76215,678.86736 444.64732,680.62558L439.17857,726.34433C446.32138,727.36467 456.50425,727.38182 463.64732,726.28183L458.17857,680.62558C470.05503,678.86863 480.46343,672.56136 487.55357,663.53183L524.52232,691.21933C528.97751,685.5437 534.0599,676.70523 536.67857,669.96933L494.24107,651.84433C496.24472,646.69018 497.33482,641.07905 497.33482,635.21933C497.33482,629.13668 496.14193,623.34601 493.99107,618.03183L536.77232,599.71933C534.08461,593.02327 528.95264,584.19893 524.42857,578.56308L487.17857,606.46933C480.07902,597.6414 469.81462,591.52356 458.08482,589.81308L463.64732,543.37558C460.07589,542.86537 455.76528,542.6157 451.42857,542.62558zM328.83482,572.34433C319.13564,591.20001 313.64732,612.56882 313.64732,635.21933C313.64732,657.86968 319.13563,679.23875 328.83482,698.09433L338.02232,693.56308C334.1537,686.06545 330.98054,678.14945 328.64732,669.87558L338.45982,667.09433C335.59928,656.95306 334.05357,646.27176 334.05357,635.21933C334.05357,624.17745 335.60466,613.47694 338.45982,603.34433L328.64732,600.59433C330.98218,592.30714 334.14899,584.38476 338.02232,576.87558L328.83482,572.34433zM573.99107,572.34433L564.80357,576.87558C568.67542,584.38287 571.8445,592.30941 574.17857,600.59433L564.36607,603.34433C567.22123,613.47695 568.77233,624.17745 568.77232,635.21933C568.77232,646.27176 567.2267,656.95305 564.36607,667.09433L574.17857,669.87558C571.8448,678.15209 568.67383,686.06321 564.80357,693.56308L573.99107,698.09433C583.69017,679.23874 589.17857,657.86968 589.17857,635.21933C589.17857,612.56882 583.69016,591.20002 573.99107,572.34433zM344.20982,704.25058L335.64732,709.90683C359.03106,746.06227 398.90317,770.54734 444.58482,772.78183L445.24107,762.59433C436.58945,762.18189 428.14133,760.93224 420.02232,758.87558L422.55357,748.96933C401.24256,743.57137 382.27036,732.33007 367.39732,717.06308L360.08482,724.21933C354.14536,718.12606 348.84271,711.42637 344.20982,704.25058zM558.64732,704.25058C554.02077,711.41808 548.70231,718.10018 542.77232,724.18808L535.45982,717.06308C520.5844,732.33826 501.59057,743.56952 480.27232,748.96933L482.80357,758.87558C474.6846,760.93223 466.26789,762.1819 457.61607,762.59433L458.24107,772.78183C503.92282,770.54731 543.79479,746.06226 567.17857,709.90683L558.64732,704.25058z" style="fill:#000;fill-opacity:1;stroke:none;stroke-width:2;stroke-miterlimit:4;stroke-dashoffset:1.8;stroke-opacity:1" id="r1"/>
</g>
</svg>